<?xml version="1.0" encoding="UTF-8"?>
<svg version="1.1" xmlns="http://www.w3.org/2000/svg" width="215" height="181">
<path d="M0 0 C1.8722945 1.4009012 3.65866929 2.82868912 5.390625 4.3984375 C8.47060765 2.92571016 11.31590402 1.21715938 14.203125 -0.6015625 C22.95534092 -5.82486457 31.47347386 -6.98324377 41.48046875 -4.984375 C52.4358975 -1.7978539 59.58271317 5.46974373 67.515625 13.2734375 C68.09691162 13.84505615 68.67819824 14.4166748 69.27709961 15.00561523 C73.390625 19.15382778 73.390625 19.15382778 73.390625 21.3984375 C75.370625 22.3884375 75.370625 22.3884375 77.390625 23.3984375 C77.390625 24.0584375 77.390625 24.7184375 77.390625 25.3984375 C78.050625 25.3984375 78.710625 25.3984375 79.390625 25.3984375 C79.390625 26.0584375 79.390625 26.7184375 79.390625 27.3984375 C80.050625 27.3984375 80.710625 27.3984375 81.390625 27.3984375 C81.390625 28.0584375 81.390625 28.7184375 81.390625 29.3984375 C82.710625 30.0584375 84.030625 30.7184375 85.390625 31.3984375 C85.390625 32.0584375 85.390625 32.7184375 85.390625 33.3984375 C86.03 33.6871875 86.669375 33.9759375 87.328125 34.2734375 C89.390625 35.3984375 89.390625 35.3984375 90.390625 37.3984375 C90.63014565 40.4131772 90.57582948 43.43773423 90.578125 46.4609375 C90.59037109 47.28271484 90.60261719 48.10449219 90.61523438 48.95117188 C90.63298904 56.47323098 89.82807073 63.68240832 85.953125 70.2734375 C85.54191406 70.99273437 85.13070312 71.71203125 84.70703125 72.453125 C83.42415911 74.34888265 82.0653946 75.84573565 80.390625 77.3984375 C81.66197754 80.90076926 83.16013385 83.61380804 85.390625 86.5859375 C88.7225433 91.56756169 89.75014831 95.50112521 90.390625 101.3984375 C90.49933929 102.03617599 90.60805359 102.67391449 90.72006226 103.33097839 C91.80352896 110.00524335 92.46082774 116.79337512 88.98272705 122.85015869 C84.33975404 128.98275678 78.66281909 134.08807959 73.015625 139.2734375 C71.36181073 140.87470854 69.71203065 142.48015715 68.06640625 144.08984375 C66.46197926 145.63140778 64.85401718 147.16930275 63.2421875 148.703125 C62.5063443 149.40517059 61.7705011 150.10721619 61.01235962 150.83053589 C52.43535599 158.68148205 43.1148942 163.07238598 31.390625 163.3984375 C22.6989317 162.52028709 16.23205342 159.7146124 9.390625 154.3984375 C7.905625 153.4084375 7.905625 153.4084375 6.390625 152.3984375 C5.88273437 152.79675781 5.37484375 153.19507813 4.8515625 153.60546875 C-3.58874778 160.10166262 -11.50688582 163.72615324 -22.41015625 163.28515625 C-38.34210551 161.00257596 -49.29490381 150.43273438 -60.359375 139.6484375 C-61.13307434 138.89732697 -61.90677368 138.14621643 -62.70391846 137.37234497 C-78.48587762 121.75404227 -78.48587762 121.75404227 -79.16894531 110.16113281 C-78.51371517 98.35658975 -74.76097735 88.73525169 -67.609375 79.3984375 C-69.54363183 75.3617276 -71.90375244 71.63043847 -74.26953125 67.8359375 C-79.06064972 59.11973363 -78.80314606 45.78869401 -76.609375 36.3984375 C-72.65352379 28.54010644 -65.76816383 22.91010873 -59.296875 17.1484375 C-57.65020341 15.57594323 -56.00887823 13.99783058 -54.37304688 12.4140625 C-38.82403933 -2.31132591 -20.66795914 -12.68542402 0 0 Z M-36.3203125 23.46484375 C-36.93331207 24.05837143 -37.54631165 24.65189911 -38.17788696 25.26341248 C-39.46445123 26.51739731 -40.74672614 27.77579645 -42.02490234 29.03833008 C-43.97758487 30.95427512 -45.96212409 32.83274798 -47.94921875 34.71289062 C-54.48140851 40.7220129 -54.48140851 40.7220129 -58.49755859 48.39672852 C-58.56849298 54.00928324 -57.15453553 59.78540602 -53.14453125 63.90234375 C-49.09598811 67.37676586 -46.61030658 68.57464283 -41.359375 68.7109375 C-40.42609375 68.74832031 -39.4928125 68.78570312 -38.53125 68.82421875 C-30.47725275 67.65057477 -23.68927241 59.1718986 -18.04833984 53.70239258 C-16.84141146 52.54370884 -15.62125025 51.39864972 -14.38818359 50.26782227 C-6.87241093 43.62091464 -6.87241093 43.62091464 -2.76391602 34.77709961 C-2.67769937 28.62140245 -3.22229832 24.02265346 -7.609375 19.3984375 C-12.1499655 15.30083144 -15.27418737 14.31401385 -21.37890625 14.0703125 C-27.6716413 14.99603885 -31.95520648 19.21899363 -36.3203125 23.46484375 Z M18.453125 21.4609375 C17.34242975 23.48632296 16.89411222 25.14909201 16.390625 27.3984375 C16.20612793 28.15898438 16.02163086 28.91953125 15.83154297 29.703125 C15.34776961 33.54412492 15.30493538 36.70437983 17.45959473 40.06640625 C20.52298008 43.88478407 24.03040326 47.2553935 27.59667969 50.59912109 C29.51436442 52.3972555 31.39188773 54.23043378 33.265625 56.07421875 C34.47442441 57.24699945 35.68529592 58.41764897 36.8984375 59.5859375 C37.45806183 60.12653809 38.01768616 60.66713867 38.5942688 61.22412109 C44.45826388 66.70509936 49.61519888 69.04737825 57.69921875 68.81640625 C63.05229506 67.98508671 66.10239199 65.11608152 69.265625 60.8984375 C71.45253882 56.03862901 72.28993245 50.69089582 71.390625 45.3984375 C69.89890097 42.81035307 67.92251498 40.89882568 65.765625 38.8515625 C65.18530518 38.27307556 64.60498535 37.69458862 64.00708008 37.09857178 C62.77893841 35.88247475 61.54112733 34.67607478 60.29443359 33.47900391 C58.40332622 31.66065009 56.54596299 29.81257314 54.69140625 27.95703125 C53.48884257 26.77414428 52.28447046 25.59309245 51.078125 24.4140625 C50.52882324 23.86921204 49.97952148 23.32436157 49.41357422 22.76300049 C44.57562187 18.1536995 39.19405572 14.45320912 32.390625 13.8359375 C26.71093952 14.13840596 22.24504596 17.42437648 18.453125 21.4609375 Z M3.14404297 58.41796875 C1.77723389 59.80048828 1.77723389 59.80048828 0.3828125 61.2109375 C-0.10267059 61.69925049 -0.58815369 62.18756348 -1.08834839 62.69067383 C-2.64176631 64.25530968 -4.18809719 65.82674799 -5.734375 67.3984375 C-6.78469761 68.45878783 -7.83547322 69.51868965 -8.88671875 70.578125 C-11.46621916 73.17970706 -14.03940637 75.78743523 -16.609375 78.3984375 C-12.07945704 83.83576805 -7.26643284 88.86302681 -2.234375 93.8359375 C-1.13029297 94.93325195 -1.13029297 94.93325195 -0.00390625 96.05273438 C1.79198574 97.83696473 3.59018485 99.61879874 5.390625 101.3984375 C9.05814505 99.8592574 11.37643073 97.64358298 14.15625 94.828125 C15.04570313 93.93222656 15.93515625 93.03632812 16.8515625 92.11328125 C17.77195313 91.17613281 18.69234375 90.23898438 19.640625 89.2734375 C20.58547356 88.31855113 21.53078133 87.36411891 22.4765625 86.41015625 C24.78580838 84.07734663 27.09025703 81.73999664 29.390625 79.3984375 C24.87610542 73.99663026 20.11526659 68.94013462 15.140625 63.9609375 C14.42132813 63.22939453 13.70203125 62.49785156 12.9609375 61.74414062 C12.27257812 61.05384766 11.58421875 60.36355469 10.875 59.65234375 C10.25334961 59.02658447 9.63169922 58.4008252 8.99121094 57.75610352 C6.34100785 55.50812008 5.68425355 56.13448451 3.14404297 58.41796875 Z M-53.203125 92.828125 C-57.4175482 97.75311956 -58.52476501 102.58656382 -58.46630859 108.94873047 C-56.60078882 116.45864342 -49.91549687 121.36692771 -44.421875 126.4609375 C-43.1607795 127.67892139 -41.90228764 128.89960715 -40.64648438 130.12304688 C-31.67079856 139.50027577 -31.67079856 139.50027577 -19.671875 142.8359375 C-14.50841893 142.68388481 -11.42696629 142.12058901 -7.609375 138.3984375 C-3.77348206 133.55309906 -2.58471992 129.06144848 -2.67675781 122.87988281 C-4.57221647 115.80416542 -10.4177704 111.10702747 -15.61499023 106.21289062 C-17.67243742 104.27290719 -19.68052206 102.29085488 -21.68554688 100.296875 C-22.98174745 99.03375634 -24.28049458 97.77324457 -25.58203125 96.515625 C-26.18024185 95.92925262 -26.77845245 95.34288025 -27.39479065 94.73873901 C-34.6603176 87.95361136 -45.23243259 85.67794504 -53.203125 92.828125 Z M36.703125 98.30859375 C36.11515137 98.87613876 35.52717773 99.44368378 34.92138672 100.02842712 C33.69269006 101.22396805 32.46942544 102.42511529 31.25146484 103.6315918 C29.39225288 105.45933718 27.49684837 107.24325125 25.59765625 109.02929688 C18.05947102 115.96964994 18.05947102 115.96964994 15.4765625 125.4921875 C16.22756603 131.92795592 18.33618576 136.69369004 23.328125 140.8359375 C28.7836187 143.61935265 32.9970328 143.58938473 38.87078857 142.27938843 C43.1346419 140.78871804 45.83133655 138.08413332 48.9296875 134.88671875 C49.58141937 134.24026901 50.23315125 133.59381927 50.90463257 132.92778015 C52.2670001 131.56646793 53.61951872 130.19523334 54.96240234 128.81469727 C57.0192463 126.70722707 59.11342395 124.64300051 61.21484375 122.58007812 C62.53886635 121.24717934 63.86056647 119.91196863 65.1796875 118.57421875 C65.80453033 117.96040848 66.42937317 117.34659821 67.07315063 116.71418762 C70.12961676 113.52170104 71.31071628 112.13142915 71.80444336 107.60253906 C70.837631 100.11673055 69.14889134 95.26022671 63.109375 90.4921875 C53.27233986 84.23225605 43.70588251 91.48256137 36.703125 98.30859375 Z " fill="#C4231B" transform="translate(95.609375,10.6015625)"/>
<path d="M0 0 C-4.95 4.95 -9.9 9.9 -15 15 C-15.99 13.68 -16.98 12.36 -18 11 C-17.21625 10.0925 -16.4325 9.185 -15.625 8.25 C-14.05987579 6.40228392 -13.03007805 5.07519513 -12.125 2.8125 C-9.08366524 -2.08742823 -4.66030551 -2.33015276 0 0 Z " fill="#B71E16" transform="translate(67,28)"/>
<path d="M0 0 C0.33 0.99 0.66 1.98 1 3 C0.21753906 3.63164063 -0.56492187 4.26328125 -1.37109375 4.9140625 C-7.68582782 10.35931379 -7.68582782 10.35931379 -10.953125 17.84765625 C-11.16206662 21.27081649 -11.21477447 24.57859268 -11 28 C-11.66 28 -12.32 28 -13 28 C-13 10 -13 10 -12 8 C-11.34 8 -10.68 8 -10 8 C-9.67 7.34 -9.34 6.68 -9 6 C-8.34 6.33 -7.68 6.66 -7 7 C-6.9175 6.401875 -6.835 5.80375 -6.75 5.1875 C-5.6373204 1.94218449 -3.50829352 0 0 0 Z " fill="#B71E1A" transform="translate(49,42)"/>
<path d="M0 0 C0.33 0 0.66 0 1 0 C0.91484131 0.70092773 0.82968262 1.40185547 0.74194336 2.12402344 C0.5458711 8.65691599 1.90099886 12.56431675 6.24209595 17.29650879 C9.27514766 20.36365745 12.39954818 23.31775016 15.5625 26.25 C16.8612332 27.4934783 18.15748496 28.73955376 19.45117188 29.98828125 C22.60625451 33.02293499 25.79299068 36.02031414 29 39 C28.01 39.495 28.01 39.495 27 40 C23.99090163 38.61118537 22.31918215 37.53766458 20.61328125 34.6640625 C18.89183099 31.82137709 17.00692254 29.80875768 14.625 27.5 C13.82835937 26.72140625 13.03171875 25.9428125 12.2109375 25.140625 C11.48132812 24.43421875 10.75171875 23.7278125 10 23 C8.33333333 21.33333333 6.66666667 19.66666667 5 18 C3.6078125 17.01 3.6078125 17.01 2.1875 16 C-1.35046588 11.14793251 -0.38275307 5.80934104 0 0 Z " fill="#AB3835" transform="translate(37,111)"/>
<path d="M0 0 C2.31 0 4.62 0 7 0 C7 0.99 7 1.98 7 3 C8.0725 2.79375 9.145 2.5875 10.25 2.375 C13.94671614 2.00532839 15.08055808 1.91468434 18 4 C19.75 5.625 19.75 5.625 21 7 C13.51969639 7.71925996 7.60652292 5.4882441 1 2 C0.67 1.34 0.34 0.68 0 0 Z " fill="#B72820" transform="translate(55,166)"/>
<path d="M0 0 C0.66 0 1.32 0 2 0 C2.33 8.91 2.66 17.82 3 27 C2.01 26.34 1.02 25.68 0 25 C-0.34057617 22.47802734 -0.34057617 22.47802734 -0.29296875 19.3359375 C-0.28330078 18.21445313 -0.27363281 17.09296875 -0.26367188 15.9375 C-0.23853516 14.761875 -0.21339844 13.58625 -0.1875 12.375 C-0.17396484 11.19164063 -0.16042969 10.00828125 -0.14648438 8.7890625 C-0.11103916 5.85892461 -0.06162769 2.92968541 0 0 Z " fill="#A82C26" transform="translate(19,107)"/>
<path d="M0 0 C3 0 3 0 5.6875 2.375 C8 5 8 5 8 7 C9.32 6.67 10.64 6.34 12 6 C14.81573751 11.96273825 13.75822476 17.6677986 13 24 C12.67 24 12.34 24 12 24 C12.05542969 23.26136719 12.11085938 22.52273437 12.16796875 21.76171875 C12.20788138 15.47947068 11.37197213 11.73347413 6.99536133 7.27075195 C4.70728907 5.12897862 2.35492819 3.06783645 0 1 C0 0.67 0 0.34 0 0 Z " fill="#B02720" transform="translate(80,118)"/>
<path d="M0 0 C0 3 0 3 -2.265625 5.55859375 C-3.25292513 6.52593498 -4.2480879 7.4853011 -5.25 8.4375 C-5.74113281 8.91509766 -6.23226562 9.39269531 -6.73828125 9.88476562 C-8.1543376 11.2611724 -9.57705622 12.63071472 -11 14 C-12.33664869 15.33000971 -13.67142004 16.66193018 -15 18 C-15.99 17.67 -16.98 17.34 -18 17 C-19.66362417 16.65179959 -21.32995171 16.31595508 -23 16 C-22.67 15.34 -22.34 14.68 -22 14 C-20.56623374 13.83768684 -19.12719814 13.72143911 -17.6875 13.625 C-9.79109392 12.2994094 -5.07460133 5.70238706 0 0 Z " fill="#B52E29" transform="translate(149,139)"/>
<path d="M0 0 C1.21236328 0.01353516 1.21236328 0.01353516 2.44921875 0.02734375 C3.37154297 0.04474609 3.37154297 0.04474609 4.3125 0.0625 C4.6425 2.0425 4.9725 4.0225 5.3125 6.0625 C4.075 5.5984375 4.075 5.5984375 2.8125 5.125 C-1.07876155 3.94372417 -4.64916953 3.48025832 -8.6875 3.0625 C-6.88341097 -0.54567807 -3.60175697 -0.05219938 0 0 Z " fill="#B62825" transform="translate(80.6875,21.9375)"/>
<path d="M0 0 C1.65 0 3.3 0 5 0 C7.68219822 5.36439644 8.3152595 9.01006953 8 15 C7.34 15 6.68 15 6 15 C5.67 16.32 5.34 17.64 5 19 C5.05800781 18.13117188 5.11601562 17.26234375 5.17578125 16.3671875 C5.74581794 8.74559837 5.74581794 8.74559837 2.5 2.1875 C1.675 1.465625 0.85 0.74375 0 0 Z " fill="#AC2923" transform="translate(161,50)"/>
<path d="M0 0 C2.31 0 4.62 0 7 0 C7.19335938 0.55429688 7.38671875 1.10859375 7.5859375 1.6796875 C7.84632812 2.40414062 8.10671875 3.12859375 8.375 3.875 C8.63023438 4.59429687 8.88546875 5.31359375 9.1484375 6.0546875 C9.93877783 8.18157994 9.93877783 8.18157994 12 10 C9 10 9 10 6.73828125 8.06640625 C5.93777344 7.24011719 5.13726562 6.41382812 4.3125 5.5625 C3.50425781 4.73878906 2.69601563 3.91507812 1.86328125 3.06640625 C0 1 0 1 0 0 Z " fill="#B42B24" transform="translate(69,107)"/>
<path d="M0 0 C0.99 0 1.98 0 3 0 C1.59155282 3.21524305 -0.10344786 5.32183868 -2.625 7.75 C-3.57246094 8.67039062 -3.57246094 8.67039062 -4.5390625 9.609375 C-5.02117187 10.06828125 -5.50328125 10.5271875 -6 11 C-6.68707555 8.50935112 -7 6.62113708 -7 4 C-3.25 2.875 -3.25 2.875 -1 4 C-0.67 2.68 -0.34 1.36 0 0 Z " fill="#B42C27" transform="translate(135,103)"/>
<path d="M0 0 C-0.8125 2.4375 -0.8125 2.4375 -2 5 C-2.99 5.33 -3.98 5.66 -5 6 C-5.73323796 8.01508358 -5.73323796 8.01508358 -6 10 C-7.98 10.33 -9.96 10.66 -12 11 C-2.73033708 0 -2.73033708 0 0 0 Z " fill="#AD2724" transform="translate(57,11)"/>
<path d="M0 0 C1.051875 0.61875 2.10375 1.2375 3.1875 1.875 C6.05015677 3.51579108 8.89207246 4.86984453 12 6 C12 6.33 12 6.66 12 7 C7.18061476 7.23509196 3.53701494 6.45184478 -1 5 C-0.67 3.35 -0.34 1.7 0 0 Z " fill="#B0231C" transform="translate(42,74)"/>
<path d="M0 0 C4.52615993 3.67832017 8.39424999 7.41086363 12 12 C10.02 12 8.04 12 6 12 C5.7525 11.0925 5.505 10.185 5.25 9.25 C3.95087424 5.87227303 2.59801015 4.42480947 0 2 C0 1.34 0 0.68 0 0 Z " fill="#AE2A24" transform="translate(79,90)"/>
<path d="M0 0 C3.73487777 0.4979837 5.81237635 0.87491756 9 3 C8.67 3.99 8.34 4.98 8 6 C5.69 6 3.38 6 1 6 C1.99 5.67 2.98 5.34 4 5 C4 4.01 4 3.02 4 2 C2.68 2 1.36 2 0 2 C0 1.34 0 0.68 0 0 Z " fill="#B7261F" transform="translate(85,7)"/>
<path d="M0 0 C2.625 0.9375 2.625 0.9375 5 2 C4.06725891 3.12894876 3.12859878 4.25300876 2.1875 5.375 C1.66542969 6.00148438 1.14335938 6.62796875 0.60546875 7.2734375 C-1 9 -1 9 -4 11 C-3.34 9.02 -2.68 7.04 -2 5 C-1.01 5 -0.02 5 1 5 C1 4.01 1 3.02 1 2 C0.01 1.67 -0.98 1.34 -2 1 C-1.34 0.67 -0.68 0.34 0 0 Z " fill="#B42D28" transform="translate(123,112)"/>
<path d="M0 0 C3.25914951 3.08297927 6.06553673 5.9161331 8 10 C7.67 10.99 7.34 11.98 7 13 C5.10598139 11.3530273 4.10061475 10.41503583 3.5 7.9375 C3.12732749 5.60312807 3.12732749 5.60312807 0 4 C0 2.68 0 1.36 0 0 Z " fill="#B32C28" transform="translate(175,90)"/>
<path d="M0 0 C0.33 1.32 0.66 2.64 1 4 C0.34 4.66 -0.32 5.32 -1 6 C-1.99 6 -2.98 6 -4 6 C-4 6.99 -4 7.98 -4 9 C-5.32 8.67 -6.64 8.34 -8 8 C-5.36 5.36 -2.72 2.72 0 0 Z " fill="#B62B2A" transform="translate(42,24)"/>
<path d="M0 0 C2.64 0 5.28 0 8 0 C8.66666667 2.66666667 9.33333333 5.33333333 10 8 C8.70684939 7.04367001 7.41553147 6.08486149 6.125 5.125 C5.40570313 4.59132813 4.68640625 4.05765625 3.9453125 3.5078125 C2 2 2 2 0 0 Z " fill="#B32924" transform="translate(59,99)"/>
<path d="M0 0 C2.71675995 0.36712972 4.61063713 0.72744599 6.875 2.3125 C7.431875 3.1478125 7.431875 3.1478125 8 4 C7.5703125 6.10546875 7.5703125 6.10546875 7 8 C5.83035398 6.8572081 4.66435444 5.71068285 3.5 4.5625 C2.8503125 3.92441406 2.200625 3.28632812 1.53125 2.62890625 C0 1 0 1 0 0 Z " fill="#B02A22" transform="translate(144,33)"/>
<path d="M0 0 C-3.13498292 1.85776765 -5.37471432 2.20140476 -9 2 C-8.67 1.01 -8.34 0.02 -8 -1 C-4.37673261 -2.2077558 -3.35853631 -1.54311128 0 0 Z " fill="#B62A20" transform="translate(86,171)"/>
<path d="M0 0 C3 0 3 0 4.60546875 1.53125 C5.12753906 2.1809375 5.64960937 2.830625 6.1875 3.5 C6.71730469 4.1496875 7.24710937 4.799375 7.79296875 5.46875 C8.19128906 5.9740625 8.58960937 6.479375 9 7 C8.67 7.66 8.34 8.32 8 9 C6.66368764 7.6905332 5.33102075 6.37734515 4 5.0625 C3.2575 4.33160156 2.515 3.60070312 1.75 2.84765625 C0 1 0 1 0 0 Z " fill="#AF2E2B" transform="translate(80,118)"/>
<path d="M0 0 C1.17539996 0.92652701 2.34010577 1.86663387 3.5 2.8125 C4.1496875 3.33457031 4.799375 3.85664063 5.46875 4.39453125 C7 6 7 6 7 9 C0.70535714 4.17857143 0.70535714 4.17857143 0 0 Z " fill="#D61711" transform="translate(159,21)"/>
<path d="M0 0 C3.36720387 1.39332574 4.9859524 2.9789286 7 6 C6.01 6.33 5.02 6.66 4 7 C0 2.25 0 2.25 0 0 Z " fill="#D01917" transform="translate(152,15)"/>
<path d="M0 0 C0.99 0.99 1.98 1.98 3 3 C0.03 5.475 0.03 5.475 -3 8 C-3 5 -3 5 -1 3 C-0.67 2.01 -0.34 1.02 0 0 Z " fill="#AF2522" transform="translate(175,136)"/>
<path d="M0 0 C2.475 0.495 2.475 0.495 5 1 C4.67 3.97 4.34 6.94 4 10 C3.67 10 3.34 10 3 10 C2.01 6.7 1.02 3.4 0 0 Z " fill="#AD2B26" transform="translate(163,105)"/>
<path d="M0 0 C2.64 1.98 5.28 3.96 8 6 C6 7 6 7 3.4375 6.375 C1 5 1 5 0.1875 2.375 C0.125625 1.59125 0.06375 0.8075 0 0 Z " fill="#AC2D23" transform="translate(134,71)"/>
<path d="M0 0 C2.31 0 4.62 0 7 0 C4.44008376 2.01136276 1.95409701 3.62845496 -1 5 C-0.67 3.35 -0.34 1.7 0 0 Z " fill="#A9201A" transform="translate(139,99)"/>
</svg>
